<?xml version="1.0" encoding="utf-8"?>
<!-- Generator: Adobe Illustrator 24.1.1, SVG Export Plug-In . SVG Version: 6.00 Build 0)  -->
<svg version="1.1" id="Layer_1" xmlns="http://www.w3.org/2000/svg" xmlns:xlink="http://www.w3.org/1999/xlink" x="0px" y="0px"
	 viewBox="0 0 300 300" style="enable-background:new 0 0 300 300;" xml:space="preserve">
<style type="text/css">
	.st0{display:none;}
	.st1{display:inline;fill:none;stroke:#000000;stroke-width:35;stroke-linecap:round;stroke-miterlimit:10;}
	.st2{display:inline;}
	.st3{fill:none;stroke:#FFFFFF;stroke-width:7;stroke-linecap:round;stroke-miterlimit:10;}
</style>
<g class="st0">
	<line class="st1" x1="149.46" y1="23.7" x2="151.35" y2="278.64"/>
	<line class="st1" x1="277.88" y1="151.17" x2="22.93" y2="151.17"/>
</g>
<g class="st0">
	<polygon class="st2" points="236.33,56.75 236.33,67.25 241.58,67.25 241.58,60.22 246.26,60.22 246.26,67.25 251.11,67.25 
		251.11,56.75 	"/>
	<polygon class="st2" points="243.72,47.94 232.97,58.16 254.47,58.16 	"/>
</g>
<g class="st0">
	<path class="st2" d="M261.02,134.93h-14.81c-0.98,0-1.78-0.8-1.78-1.78v-9.56c0-0.98,0.8-1.78,1.78-1.78h14.81
		c0.98,0,1.78,0.8,1.78,1.78v9.56C262.8,134.13,262,134.93,261.02,134.93z"/>
	<path class="st2" d="M252.11,124.71h-6.19c-0.83,0-1.5-0.67-1.5-1.5v-1.78c0-0.83,0.67-1.5,1.5-1.5h6.19c0.83,0,1.5,0.67,1.5,1.5
		v1.78C253.61,124.04,252.94,124.71,252.11,124.71z"/>
</g>
<g class="st0">
	<path class="st2" d="M252.87,90.31c-1.04,0-2.01,0.16-2.88,0.45c2.05,0.68,3.46,2.05,3.46,3.64v2.2h5.75v-2.2
		C259.21,92.14,256.37,90.31,252.87,90.31z"/>
	<path class="st2" d="M245.16,90.31c-3.5,0-6.34,1.83-6.34,4.08v2.2h12.68v-2.2C251.5,92.14,248.67,90.31,245.16,90.31z"/>
	<circle class="st2" cx="245.16" cy="85.86" r="2.95"/>
	<circle class="st2" cx="252.95" cy="85.86" r="2.95"/>
</g>
<g class="st0">
	<path class="st2" d="M258.43,182.75h-11.34c-0.91,0-1.64-0.73-1.64-1.64v-6.66c0-0.91,0.73-1.64,1.64-1.64h11.34
		c0.91,0,1.64,0.73,1.64,1.64v6.66C260.07,182.02,259.33,182.75,258.43,182.75z"/>
	<path class="st2" d="M263.68,177.78h-2.67v4.55c0,0.91-0.73,1.64-1.64,1.64h-9.14v3.33c0,0.91,0.73,1.64,1.64,1.64h11.81
		c0.91,0,1.64-0.73,1.64-1.64v-7.88C265.32,178.52,264.58,177.78,263.68,177.78z"/>
	<polygon class="st2" points="245.44,185.35 249.79,182.49 245.44,180.15 	"/>
</g>
<g>
	<path d="M251.18,219.49H48.82c-0.91,0-1.64-0.73-1.64-1.64V57.02c0-0.91,0.73-1.64,1.64-1.64h202.35c0.91,0,1.64,0.73,1.64,1.64
		v160.84C252.82,218.76,252.08,219.49,251.18,219.49z"/>
	<polygon points="47.18,262.44 108.27,215.23 47.18,176.55 	"/>
	<line class="st3" x1="92.07" y1="105.88" x2="208.98" y2="106.86"/>
	<line class="st3" x1="91.8" y1="138.59" x2="208.71" y2="139.57"/>
	<line class="st3" x1="91.55" y1="168.87" x2="208.45" y2="169.85"/>
</g>
</svg>
