<?xml version="1.0" encoding="utf-8"?>
<!-- Generator: Adobe Illustrator 24.1.2, SVG Export Plug-In . SVG Version: 6.00 Build 0)  -->
<svg version="1.1" id="Layer_1" xmlns="http://www.w3.org/2000/svg" xmlns:xlink="http://www.w3.org/1999/xlink" x="0px" y="0px"
	 viewBox="0 0 300 300" style="enable-background:new 0 0 300 300;" xml:space="preserve">
<style type="text/css">
	.st0{fill:none;stroke:#222222;stroke-width:35;stroke-linecap:round;stroke-miterlimit:10;}
	.st1{display:none;}
	.st2{display:inline;}
	.st3{display:inline;fill:none;stroke:#FFFFFF;stroke-linecap:round;stroke-miterlimit:10;}
</style>
<g>
	<line class="st0" x1="149.3" y1="61.5" x2="150.7" y2="238.5"/>
	<line class="st0" x1="238.5" y1="150" x2="61.5" y2="150"/>
</g>
<g class="st1">
	<polygon class="st2" points="236.3,56.8 236.3,67.3 241.6,67.3 241.6,60.2 246.3,60.2 246.3,67.3 251.1,67.3 251.1,56.8 	"/>
	<polygon class="st2" points="243.7,47.9 233,58.2 254.5,58.2 	"/>
</g>
<g class="st1">
	<path class="st2" d="M261,134.9h-14.8c-1,0-1.8-0.8-1.8-1.8v-9.6c0-1,0.8-1.8,1.8-1.8H261c1,0,1.8,0.8,1.8,1.8v9.6
		C262.8,134.1,262,134.9,261,134.9z"/>
	<path class="st2" d="M252.1,124.7h-6.2c-0.8,0-1.5-0.7-1.5-1.5v-1.8c0-0.8,0.7-1.5,1.5-1.5h6.2c0.8,0,1.5,0.7,1.5,1.5v1.8
		C253.6,124,252.9,124.7,252.1,124.7z"/>
</g>
<g class="st1">
	<path class="st2" d="M252.9,90.3c-1,0-2,0.2-2.9,0.4c2.1,0.7,3.5,2.1,3.5,3.6v2.2h5.8v-2.2C259.2,92.1,256.4,90.3,252.9,90.3z"/>
	<path class="st2" d="M245.2,90.3c-3.5,0-6.3,1.8-6.3,4.1v2.2h12.7v-2.2C251.5,92.1,248.7,90.3,245.2,90.3z"/>
	<circle class="st2" cx="245.2" cy="85.9" r="2.9"/>
	<circle class="st2" cx="252.9" cy="85.9" r="2.9"/>
</g>
<g class="st1">
	<path class="st2" d="M258.4,182.8h-11.3c-0.9,0-1.6-0.7-1.6-1.6v-6.7c0-0.9,0.7-1.6,1.6-1.6h11.3c0.9,0,1.6,0.7,1.6,1.6v6.7
		C260.1,182,259.3,182.8,258.4,182.8z"/>
	<path class="st2" d="M263.7,177.8H261v4.6c0,0.9-0.7,1.6-1.6,1.6h-9.1v3.3c0,0.9,0.7,1.6,1.6,1.6h11.8c0.9,0,1.6-0.7,1.6-1.6v-7.9
		C265.3,178.5,264.6,177.8,263.7,177.8z"/>
	<polygon class="st2" points="245.4,185.4 249.8,182.5 245.4,180.1 	"/>
</g>
<g class="st1">
	<path class="st2" d="M260.4,222.6h-15.2c-0.9,0-1.6-0.7-1.6-1.6v-11.5c0-0.9,0.7-1.6,1.6-1.6h15.2c0.9,0,1.6,0.7,1.6,1.6v11.5
		C262.1,221.9,261.4,222.6,260.4,222.6z"/>
	<polygon class="st2" points="243.6,226.4 249.1,222.2 243.6,218.7 	"/>
	<line class="st3" x1="247.6" y1="212.4" x2="258.1" y2="212.5"/>
	<line class="st3" x1="247.6" y1="215.3" x2="258.1" y2="215.4"/>
	<line class="st3" x1="247.6" y1="218" x2="258.1" y2="218.1"/>
</g>
</svg>
